# xmcd
#
# Track frame offsets:
#	150
#	13025
#	24475
#	36375
#	49880
#	62475
#	76372
#	89315
#	103090
#	115162
#	126750
#	144435
#	158247
#	172612
#	185502
#	199200
#
# Disc length: 2815 seconds
#
# Revision: 2
# Processed by: cddbd v1.4PL0 Copyright (c) Steve Scherf et al.
# Submitted via: audiograbber 1.81.03
#
DISCID=d00afd10
DTITLE=Various Artist - Blues Classics - CD 2
DYEAR=1994
DGENRE=Blues
TTITLE0=Muddy Waters - I'm Your Hoochie Coochie Man
TTITLE1=Sonny Boy Williamson - Bring It On Home To Me
TTITLE2=Etta James - I'd Rather Go Blind
TTITLE3=Amos Milburn - Greyhound Bus Blues
TTITLE4=Howlin' Wolf - Spoonful
TTITLE5=Little Walter - You're So Fine
TTITLE6=Little Milton - Baby I Love You
TTITLE7=Lowell Fulson - Lovin'  You
TTITLE8=Memphis Slim - Mother Earth
TTITLE9=Roy Milton - Whiskey Drinkin' Woman
TTITLE10=Joe Turner - Piney Browns Blues
TTITLE11=Muddy Waters - I´m Ready
TTITLE12=Little Walter - Sad Hours
TTITLE13=Howlin' Wolf - I Asked For Water (She Gave Me Gasoline)
TTITLE14=Etta James - Trust In Me
TTITLE15=Big Bill Broonzy and Washboard Sam - Diggin' My Potatoes
EXTD=
EXTT0=
EXTT1=
EXTT2=
EXTT3=
EXTT4=
EXTT5=
EXTT6=
EXTT7=
EXTT8=
EXTT9=
EXTT10=
EXTT11=
EXTT12=
EXTT13=
EXTT14=
EXTT15=
PLAYORDER=
